<?xml version="1.0" encoding="utf-8"?>
<!-- Generator: Adobe Illustrator 22.1.0, SVG Export Plug-In . SVG Version: 6.00 Build 0)  -->
<svg version="1.1" id="Слой_1" xmlns="http://www.w3.org/2000/svg" xmlns:xlink="http://www.w3.org/1999/xlink" x="0px" y="0px"
	 viewBox="0 0 27.7 17" style="enable-background:new 0 0 27.7 17;" xml:space="preserve">
<g>
	<path d="M27.7,0.5C27.7,0.4,27.7,0.4,27.7,0.5c0-0.1,0-0.2-0.1-0.2c0,0,0,0,0,0c0,0,0,0,0,0c0,0,0-0.1-0.1-0.1c0,0,0,0-0.1-0.1
		c0,0,0,0-0.1,0c0,0-0.1,0-0.1,0c0,0,0,0-0.1,0H0.5c0,0,0,0-0.1,0c0,0-0.1,0-0.1,0c0,0-0.1,0-0.1,0c0,0-0.1,0-0.1,0
		c0,0,0,0.1-0.1,0.1c0,0,0,0,0,0c0,0,0,0,0,0c0,0,0,0.1,0,0.1c0,0,0,0.1,0,0.1c0,0,0,0,0,0v16C0,16.8,0.2,17,0.5,17h26.7
		c0.3,0,0.5-0.2,0.5-0.5V0.5C27.7,0.5,27.7,0.5,27.7,0.5z M25.4,1L13.8,7.9L2.3,1H25.4z M26.7,16H1V1.4l12.6,7.6
		C13.7,9,13.8,9,13.9,9s0.2,0,0.3-0.1l12.6-7.6L26.7,16L26.7,16z"/>
</g>
</svg>
